# xmcd CD database file
#
# Track frame offsets:
#	150
#	19668
#	37589
#	49747
#	72768
#	87633
#	112664
#	134907
#
# Disc length: 2063 seconds
#
# Revision: 0
# Processed by: cddbd v1.5.2PL0 Copyright (c) Steve Scherf et al.
# Submitted via: CDex 1.70beta3
#
DISCID=62080d08
DTITLE=Joanne Grauer - Joanne Grauer Trio
DYEAR=1957
DGENRE=Jazz
TTITLE0=Mood For Mode
TTITLE1=Have You Met Miss Jones
TTITLE2=Invitation
TTITLE3=Happy Is The Sheepherder
TTITLE4=I'll Remember April
TTITLE5=Dancing Nitely
TTITLE6=I'm Grad There Is You
TTITLE7=The Song Is You
EXTD=YEAR: 1957
EXTT0=
EXTT1=
EXTT2=
EXTT3=
EXTT4=
EXTT5=
EXTT6=
EXTT7=
PLAYORDER=
